<svg xmlns="http://www.w3.org/2000/svg" width="1600" height="520" viewBox="0 0 1600 520">
  <defs>
    <linearGradient id="g" x1="0" y1="0" x2="0" y2="1">
      <stop offset="0" stop-color="#ffffff" />
      <stop offset="1" stop-color="#efe2ea" />
    </linearGradient>
  </defs>
  <rect width="1600" height="520" fill="url(#g)" />
  <rect x="120" y="120" width="1360" height="280" rx="22" fill="#8B1A5C" opacity="0.08" />
  <rect x="170" y="160" width="520" height="22" rx="11" fill="#8B1A5C" opacity="0.72" />
  <rect x="170" y="210" width="640" height="12" rx="6" fill="#333333" opacity="0.16" />
  <rect x="170" y="238" width="620" height="12" rx="6" fill="#333333" opacity="0.14" />
  <rect x="170" y="266" width="580" height="12" rx="6" fill="#333333" opacity="0.12" />
  <rect x="170" y="320" width="260" height="48" rx="12" fill="#8B1A5C" opacity="0.85" />
  <rect x="460" y="320" width="260" height="48" rx="12" fill="#8B1A5C" opacity="0.20" />
  <path d="M1180 160 C1320 120, 1460 180, 1500 240 C1460 300, 1320 360, 1180 320 C1120 260, 1120 220, 1180 160Z" fill="#8B1A5C" opacity="0.12" />
  <circle cx="1260" cy="240" r="70" fill="#8B1A5C" opacity="0.10" />
  <circle cx="1420" cy="250" r="70" fill="#8B1A5C" opacity="0.08" />
</svg>
